<svg xmlns="http://www.w3.org/2000/svg" version="1.1" xmlns:xlink="http://www.w3.org/1999/xlink" width="512" height="512" x="0" y="0" viewBox="0 0 24 24" style="enable-background:new 0 0 512 512" xml:space="preserve" class=""><g><path fill="#eceff1" d="M17.25 15.5c-4.82 0-8.75-3.93-8.75-8.75 0-2.71 1.24-5.14 3.19-6.75H2.75C1.23 0 0 1.23 0 2.75v18.5C0 22.77 1.23 24 2.75 24h14.5c1.52 0 2.75-1.23 2.75-2.75v-6.19c-.86.28-1.79.44-2.75.44z" opacity="1" data-original="#eceff1"></path><path fill="#cdd0d2" d="M10 0H2.75C1.23 0 0 1.23 0 2.75v18.5C0 22.77 1.23 24 2.75 24H10V11.64c-.946-1.398-1.5-3.081-1.5-4.89s.553-3.493 1.5-4.892z" opacity="1" data-original="#cdd0d2" class=""></path><g fill="#607d8b"><path d="M16.25 22h-1.5c-.965 0-1.75-.785-1.75-1.75v-2.5c0-.965.785-1.75 1.75-1.75h1.5a.75.75 0 0 1 0 1.5h-1.5a.25.25 0 0 0-.25.25v2.5c0 .138.112.25.25.25h1.5a.75.75 0 0 1 0 1.5zM10.25 16h-.5C8.79 16 8 16.79 8 17.75v2.5c0 .96.79 1.75 1.75 1.75h.5c.96 0 1.75-.79 1.75-1.75v-2.5c0-.96-.79-1.75-1.75-1.75zm.25 4.25c0 .14-.11.25-.25.25h-.5c-.14 0-.25-.11-.25-.25v-2.5c0-.14.11-.25.25-.25h.5c.14 0 .25.11.25.25zM5.25 16h-1.5c-.41 0-.75.34-.75.75v4.5c0 .41.34.75.75.75h1.5C6.21 22 7 21.21 7 20.25v-2.5C7 16.79 6.21 16 5.25 16zm.25 4.25c0 .14-.11.25-.25.25H4.5v-3h.75c.14 0 .25.11.25.25z" fill="#607d8b" opacity="1" data-original="#607d8b"></path></g><path fill="#4caf50" d="M17.25 13.5c-3.722 0-6.75-3.028-6.75-6.75S13.528 0 17.25 0 24 3.028 24 6.75s-3.028 6.75-6.75 6.75z" opacity="1" data-original="#4caf50" class=""></path><path fill="#ffffff" d="M16.25 9.75a1 1 0 0 1-.707-.293l-2-2a.999.999 0 1 1 1.414-1.414l1.244 1.244 2.796-3.196a1.001 1.001 0 0 1 1.505 1.317l-3.5 4a.995.995 0 0 1-.719.341z" opacity="1" data-original="#ffffff" class=""></path><path fill="#429846" d="M17.25 0c-3.722 0-6.75 3.028-6.75 6.75s3.028 6.75 6.75 6.75V9.126l-.248.283a.998.998 0 0 1-.719.34l-.033.001a1 1 0 0 1-.707-.293l-2-2a.999.999 0 1 1 1.414-1.414l1.244 1.244 1.049-1.199z" opacity="1" data-original="#429846" class=""></path><path fill="#dedede" d="M14.25 5.75a.999.999 0 0 0-.707 1.707l2 2a1 1 0 0 0 .707.293l.033-.001a.999.999 0 0 0 .719-.341l.248-.283V6.088l-1.049 1.199-1.244-1.244a.997.997 0 0 0-.707-.293z" opacity="1" data-original="#dedede" class=""></path><path fill="#546d79" d="M14.5 19H13v1.25c0 .965.785 1.75 1.75 1.75h1.5a.75.75 0 0 0 0-1.5h-1.5a.25.25 0 0 1-.25-.25zM12 19h-1.5v1.25c0 .14-.11.25-.25.25h-.5c-.14 0-.25-.11-.25-.25V19H8v1.25c0 .96.79 1.75 1.75 1.75h.5c.96 0 1.75-.79 1.75-1.75zM7 19H5.5v1.25c0 .14-.11.25-.25.25H4.5V19H3v2.25c0 .41.34.75.75.75h1.5C6.21 22 7 21.21 7 20.25z" opacity="1" data-original="#546d79"></path></g></svg>